<svg width="24" height="24" viewBox="0 0 24 24" fill="none" xmlns="http://www.w3.org/2000/svg">
<path d="M23.298 13.6127L18.2096 18.7092C18.1352 18.7842 18.0467 18.8437 17.9492 18.8843C17.8517 18.9249 17.7472 18.9458 17.6416 18.9458C17.5359 18.9458 17.4314 18.9249 17.3339 18.8843C17.2364 18.8437 17.1479 18.7842 17.0735 18.7092C16.9985 18.6348 16.939 18.5463 16.8984 18.4488C16.8578 18.3513 16.8368 18.2467 16.8368 18.1411C16.8368 18.0355 16.8578 17.9309 16.8984 17.8334C16.939 17.7359 16.9985 17.6474 17.0735 17.5731L21.9299 12.7166H0.80007C0.587879 12.7166 0.384377 12.6323 0.234335 12.4823C0.0842929 12.3323 0 12.1288 0 11.9166C0 11.7044 0.0842929 11.5009 0.234335 11.3508C0.384377 11.2008 0.587879 11.1165 0.80007 11.1165H21.9299L17.0735 6.26007C16.9228 6.10941 16.8382 5.90508 16.8382 5.69202C16.8382 5.47896 16.9228 5.27462 17.0735 5.12397C17.2242 4.97331 17.4285 4.88867 17.6416 4.88867C17.8546 4.88867 18.0589 4.97331 18.2096 5.12397L23.298 10.2204C23.7475 10.6705 24 11.2805 24 11.9166C24 12.5526 23.7475 13.1627 23.298 13.6127Z" fill="white"/>
</svg>
